HIERARCHY
ROOT pelvis
{
  OFFSET 0 100 0
  CHANNELS 6 Xposition Yposition Zposition Zrotation Xrotation Yrotation
  JOINT pelvis_right_femur
  {
    OFFSET -10.78128 -3.44521 -0.5502486
    CHANNELS 3 Zrotation Xrotation Yrotation
    JOINT right_femur_tibia
    {
      OFFSET -0.8047443 -44.0398 -0.1307829
      CHANNELS 3 Zrotation Xrotation Yrotation
      JOINT right_tibia_foot
      {
        OFFSET 3.006224 -47.83518 -5
        CHANNELS 3 Zrotation Xrotation Yrotation
        End Site
        {
          OFFSET 0 -5 15
        }
      }
    }
  }
  JOINT pelvis_left_femur
  {
    OFFSET 10.78128 -3.44521 -0.5502486
    CHANNELS 3 Zrotation Xrotation Yrotation
    JOINT left_femur_tibia
    {
      OFFSET 0.8047443 -44.0398 -0.1307829
      CHANNELS 3 Zrotation Xrotation Yrotation
      JOINT left_tibia_foot
      {
        OFFSET -4.370144 -48.10324 -4.275266
        CHANNELS 3 Zrotation Xrotation Yrotation
        End Site
        {
          OFFSET 0 -5 15
        }
      }
    }
  }
  JOINT pelvis_spine1
  {
    OFFSET 0 6.468898 -3.129235
    CHANNELS 3 Zrotation Xrotation Yrotation
    JOINT spine1
    {
      OFFSET 0 23.15396 4.99043
      CHANNELS 3 Zrotation Xrotation Yrotation
      JOINT spine2
      {
        OFFSET 0 20.79997 -5.064912
        CHANNELS 3 Zrotation Xrotation Yrotation
        JOINT neck
        {
          OFFSET 0 14.38658 9.616178
          CHANNELS 3 Zrotation Xrotation Yrotation
          End Site
          {
            OFFSET 0 20 0
          }
        }
      }
      JOINT right_manubrium
      {
        OFFSET -5.722621 16.35077 3.967754
        CHANNELS 3 Zrotation Xrotation Yrotation
        JOINT right_clavicle
        {
          OFFSET -13.16364 1.694482 -4.693211
          CHANNELS 3 Zrotation Xrotation Yrotation
          JOINT right_humerus
          {
            OFFSET -28.5034 -0.3100689 -2.792744
            CHANNELS 3 Zrotation Xrotation Yrotation
            JOINT right_radius
            {
              OFFSET -25.15693 0.02248979 -1.271978
              CHANNELS 3 Zrotation Xrotation Yrotation
              End Site
              {
                OFFSET -15 0 0
              }
            }
          }
        }
      }
      JOINT left_manubrium
      {
        OFFSET 5.722621 16.35077 3.967754
        CHANNELS 3 Zrotation Xrotation Yrotation
        JOINT left_clavicle
        {
          OFFSET 13.16364 1.694482 -4.693211
          CHANNELS 3 Zrotation Xrotation Yrotation
          JOINT left_humerus
          {
            OFFSET 29.39168 -1.063119 -2.237045
            CHANNELS 3 Zrotation Xrotation Yrotation
            JOINT left_radius
            {
              OFFSET 24.59957 -0.9528479 0.9047498
              CHANNELS 3 Zrotation Xrotation Yrotation
              End Site
              {
                OFFSET 15 -0 -0
              }
            }
          }
        }
      }
    }
  }
}
MOTION
Frames: 11
Frame Time: 0.0416666666667
1098.901 95.88791 3029.749 7.246284 -6.255641 36.37342 0.4307086 8.455599 5.688982 -0 48.91264 -0 0.7989136 3.127597 -6.683016 -4.213489 -10.41683 -5.340337 -0 24.47292 -0 -3.437088 -11.19795 18.1361 -2.634784 -0.03516427 7.004916 -0.9746706 11.5697 -4.096612 2.357752 21.83039 3.839608 1.184997 -18.03977 6.236219 -0.4788305 -21.25626 10.44802 87.7642 17.24977 -10.42239 -0 0 19.74647 -22.03157 5.91931 13.00332 3.153352 -16.12108 -4.001587 -90.8697 22.84645 23.10097 0 0 -10.37331 -1.390672 1.169608 17.39243
1103.634 96.72506 3034.646 7.330566 -6.18243 37.44231 0.4804992 3.589235 5.333993 -0 51.32353 -0 0.3408471 4.811775 -7.28239 -4.741694 -6.267821 -5.468444 -0 23.23096 -0 -3.075898 -12.42597 17.3662 -2.771716 0.03483243 6.304335 -0.6459376 11.90642 -4.90169 2.05368 21.66713 4.073784 1.336156 -18.20032 6.039481 -0.07587922 -20.87415 10.55121 88.61612 17.48325 -12.24181 -0 0 18.35033 -21.49584 5.695315 12.76717 3.142371 -17.10293 -4.479162 -89.56444 22.88508 21.43897 0 0 -12.31117 -1.199714 0.7959064 17.2457
1108.227 97.43295 3039.329 7.201497 -6.01233 38.55513 0.6470203 -1.913046 4.91523 -0 50.82995 -0 -0.1696835 5.330014 -7.779016 -5.028646 -1.978458 -5.601713 -0 21.49075 -0 -3.038082 -13.7823 16.54087 -2.746172 0.1645949 5.575055 -0.2298894 12.05798 -5.781272 1.767479 21.51864 4.352097 1.504037 -18.30908 5.905628 0.2584731 -20.43618 10.59139 89.35187 17.77744 -14.22839 -0 0 16.94397 -20.90631 5.563428 12.42847 3.303819 -18.22889 -4.921604 -88.16372 23.07213 19.37224 0 0 -14.8144 -1.070304 0.6264591 17.08492
1112.673 97.83841 3043.848 6.896109 -5.702867 39.61707 0.8321015 -7.577985 4.440743 -0 47.22191 -0 -0.7007728 4.894162 -8.171018 -5.131942 2.164852 -5.743608 -0 19.71073 -0 -3.239617 -15.16413 15.70808 -2.638253 0.3016007 4.893735 0.2340854 12.01453 -6.650633 1.560706 21.40539 4.610266 1.657106 -18.36797 5.857554 0.4865704 -19.91148 10.55959 89.98606 18.18406 -16.28091 -0 0 15.49025 -20.36551 5.60736 12.02646 3.613018 -19.41951 -5.283267 -86.67689 23.31072 16.9397 0 0 -17.74235 -0.9379478 0.725319 16.82821
1116.997 97.83456 3048.298 6.498993 -5.247353 40.56669 0.9576777 -12.86651 3.926249 -0 41.00897 -0 -1.171297 3.8748 -8.502646 -5.135418 5.952634 -5.880332 -0 18.36144 -0 -3.557013 -16.44235 14.91024 -2.541435 0.3909328 4.312645 0.7035568 11.80652 -7.425376 1.471189 21.33415 4.785486 1.759281 -18.37458 5.893046 0.6014186 -19.27694 10.4736 90.55278 18.68956 -18.2785 -0 0 13.97933 -19.94328 5.878556 11.60308 4.014856 -20.55876 -5.536598 -85.15113 23.46602 14.26234 0 0 -20.81879 -0.7466883 1.073639 16.3997
1121.249 97.40773 3052.791 6.097047 -4.693324 41.37831 1.016728 -17.27594 3.419623 -0 33.36356 -0 -1.483321 2.640484 -8.824045 -5.101914 9.269425 -6.000806 -0 17.83856 -0 -3.905929 -17.44605 14.18504 -2.504187 0.3917727 3.846037 1.136274 11.48775 -8.037867 1.498921 21.2972 4.850736 1.79194 -18.32386 5.992913 0.6389106 -18.52343 10.36798 91.06429 19.24968 -20.08866 -0 0 12.44962 -19.65507 6.388964 11.18393 4.444447 -21.51387 -5.668985 -83.69285 23.43145 11.54744 0 0 -23.67467 -0.4615528 1.591355 15.75571
1125.501 96.64787 3057.439 5.741773 -4.150739 42.04842 1.102735 -20.42577 3.024788 -0 25.84434 -0 -1.571808 1.447887 -9.156817 -5.03815 12.06063 -6.109087 -0 18.47315 -0 -4.287271 -17.95742 13.57025 -2.492243 0.2877812 3.475717 1.492014 11.12542 -8.450022 1.609321 21.27922 4.827683 1.76416 -18.21607 6.133198 0.669646 -17.66702 10.28013 91.49931 19.8335 -21.58964 -0 0 10.9798 -19.47224 7.124027 10.77316 4.839625 -22.17212 -5.679286 -82.45077 23.18483 9.061413 0 0 -25.94229 -0.0751353 2.187379 14.91304
1129.824 95.73915 3062.328 5.442873 -3.775803 42.57367 1.384209 -22.10169 2.888995 -0 19.95391 -0 -1.448423 0.4082236 -9.48225 -4.894739 14.26408 -6.218429 -0 20.57602 -0 -4.770728 -17.74445 13.11381 -2.398142 0.09088583 3.176429 1.738824 10.79868 -8.659131 1.75159 21.27015 4.768039 1.704963 -18.06493 6.291036 0.7690918 -16.76627 10.23973 91.82281 20.43149 -22.69716 -0 0 9.663976 -19.34709 8.047063 10.36284 5.140426 -22.4795 -5.579662 -81.57264 22.80547 7.083554 0 0 -27.35823 0.3850062 2.803767 13.97066
1134.256 94.92628 3067.497 5.194376 -3.719241 42.92863 2.009959 -22.25382 3.132856 -0 16.62904 -0 -1.215272 -0.4863813 -9.748897 -4.607905 15.73378 -6.330524 -0 24.43107 -0 -5.422203 -16.64333 12.88486 -2.10356 -0.159411 2.951725 1.864897 10.59498 -8.692756 1.882817 21.2775 4.715371 1.645791 -17.89863 6.441254 0.9828632 -15.93231 10.26672 92.00897 21.03109 -23.38 -0 0 8.587106 -19.23709 9.085399 9.951439 5.285147 -22.46283 -5.400956 -81.16516 22.44182 5.855917 0 0 -27.83172 0.8491588 3.42768 13.10667
1138.783 94.45444 3072.92 5.00966 -4.047941 43.05642 2.988517 -20.95914 3.758226 -0 15.85645 -0 -1.025082 -1.302909 -9.887753 -4.162917 16.18769 -6.412725 -0 30.17868 -0 -6.21945 -14.66595 12.96826 -1.568848 -0.3994147 2.861619 1.886853 10.59251 -8.588953 1.984677 21.32781 4.677804 1.6098 -17.74895 6.551874 1.311717 -15.31206 10.37751 92.0373 21.60636 -23.64877 -0 0 7.819354 -19.1309 10.12694 9.564086 5.220958 -22.2212 -5.193193 -81.28119 22.23868 5.541245 0 0 -27.44859 1.211301 4.06565 12.53189
1143.325 94.49164 3078.491 4.931425 -4.680433 42.88674 4.131604 -18.37697 4.611064 -0 16.67212 -0 -0.992728 -2.101843 -9.826009 -3.631954 15.21886 -6.387483 -0 37.58942 -0 -7.017512 -12.07132 13.42369 -0.8952793 -0.5477592 3.018725 1.841272 10.82779 -8.368122 2.061116 21.44956 4.639052 1.618881 -17.63387 6.58867 1.726891 -15.03911 10.59067 91.85718 22.15488 -23.51437 -0 0 7.438448 -19.08005 11.05625 9.265499 4.937208 -21.88643 -5.013065 -81.92927 22.25529 6.191822 0 0 -26.413 1.362423 4.693309 12.40365
